<?xml version="1.0" encoding="UTF-8" standalone="no"?>
<svg
   xmlns:dc="http://purl.org/dc/elements/1.1/"
   xmlns:cc="http://creativecommons.org/ns#"
   xmlns:rdf="http://www.w3.org/1999/02/22-rdf-syntax-ns#"
   xmlns:svg="http://www.w3.org/2000/svg"
   xmlns="http://www.w3.org/2000/svg"
   xmlns:xlink="http://www.w3.org/1999/xlink"
   xmlns:sodipodi="http://sodipodi.sourceforge.net/DTD/sodipodi-0.dtd"
   xmlns:inkscape="http://www.inkscape.org/namespaces/inkscape"
   height="481pt"
   viewBox="-49 0 481 481.17436"
   width="481pt"
   version="1.1"
   id="svg13"
   sodipodi:docname="globe.svg"
   inkscape:export-filename="C:\Users\Botree\Desktop\globe.svg.png"
   inkscape:export-xdpi="1017.69"
   inkscape:export-ydpi="1017.69"
   inkscape:version="0.92.3 (2405546, 2018-03-11)">
  <metadata
     id="metadata19">
    <rdf:RDF>
      <cc:Work
         rdf:about="">
        <dc:format>image/svg+xml</dc:format>
        <dc:type
           rdf:resource="http://purl.org/dc/dcmitype/StillImage" />
        <dc:title></dc:title>
      </cc:Work>
    </rdf:RDF>
  </metadata>
  <defs
     id="defs17">
    <linearGradient
       inkscape:collect="always"
       id="linearGradient834">
      <stop
         style="stop-color:#7e62f6;stop-opacity:1"
         offset="0"
         id="stop830" />
      <stop
         style="stop-color:#34aaf5;stop-opacity:1"
         offset="1"
         id="stop832" />
    </linearGradient>
    <linearGradient
       inkscape:collect="always"
       xlink:href="#linearGradient834"
       id="linearGradient1034"
       x1="72.555161"
       y1="193.50185"
       x2="331.07751"
       y2="193.50185"
       gradientUnits="userSpaceOnUse" />
  </defs>
  <sodipodi:namedview
     pagecolor="#ffffff"
     bordercolor="#666666"
     borderopacity="1"
     objecttolerance="10"
     gridtolerance="10"
     guidetolerance="10"
     inkscape:pageopacity="0"
     inkscape:pageshadow="2"
     inkscape:window-width="1920"
     inkscape:window-height="1018"
     id="namedview15"
     showgrid="false"
     inkscape:zoom="1.0408141"
     inkscape:cx="374.44159"
     inkscape:cy="203.48588"
     inkscape:window-x="-8"
     inkscape:window-y="-8"
     inkscape:window-maximized="1"
     inkscape:current-layer="svg13" />
  <linearGradient
     id="a">
    <stop
       offset="0"
       stop-color="#006df0"
       id="stop2" />
    <stop
       offset="1"
       stop-color="#00e7f0"
       id="stop4" />
  </linearGradient>
  <linearGradient
     id="b"
     gradientUnits="userSpaceOnUse"
     x1="208.083248"
     x2="208.083248"
     xlink:href="#a"
     y1="-13.601645"
     y2="526.198355" />
  <linearGradient
     id="c"
     gradientUnits="userSpaceOnUse"
     x1="172.075248"
     x2="172.075248"
     xlink:href="#a"
     y1="-13.601645"
     y2="526.198355" />
  <path
     d="m378.082031 155.621094c-25.15625-93.886719-121.664062-149.601563-215.550781-124.445313-13.183594 3.519531-25.921875 8.539063-37.960938 14.964844-35.949218 19.269531-64.023437 50.507813-79.351562 88.304687v.042969c-22.15625 54.210938-15.917969 115.894531 16.644531 164.574219 32.5625 48.683594 87.1875 77.996094 145.757813 78.214844 29.296875-.058594 58.140625-7.292969 84-21.070313 35.949218-19.265625 64.023437-50.507812 79.351562-88.304687v-.039063c14.695313-35.601562 17.195313-75.066406 7.109375-112.242187zm-33.039062 128.234375c-.328125.550781-.640625 1.117187-.984375 1.664062-2.6875 4.375-5.597656 8.574219-8.679688 12.628907-.457031.609374-.902344 1.21875-1.367187 1.816406-3.089844 3.953125-6.351563 7.738281-9.785157 11.351562-.558593.59375-1.121093 1.1875-1.679687 1.761719-3.460937 3.5625-7.085937 6.945313-10.878906 10.152344-.617188.519531-1.242188 1.03125-1.863281 1.542969-3.25 2.671874-6.648438 5.152343-10.113282 7.5625 11.292969-21.613282 17.621094-45.480469 18.511719-69.847657 11.722656 1.132813 23.296875 3.480469 34.535156 7l-.152343.351563c-2.285157 4.832031-4.824219 9.488281-7.542969 14.015625zm-157.945313 76c-1.277344-.167969-2.550781-.359375-3.832031-.5625-1.597656-.253907-3.269531-.527344-4.902344-.796875-1.289062-.242188-2.566406-.503906-3.847656-.800782-1.601563-.34375-3.199219-.714843-4.800781-1.105468-1.285156-.320313-2.566406-.652344-3.847656-1-1.601563-.429688-3.167969-.894532-4.703126-1.382813-1.269531-.382812-2.535156-.789062-3.792968-1.207031-1.550782-.523438-3.085938-1.082031-4.617188-1.648438-1.253906-.464843-2.511718-.929687-3.75-1.425781-1.519531-.609375-3.015625-1.253906-4.519531-1.910156-1.234375-.539063-2.457031-1.066406-3.671875-1.601563-1.488281-.6875-2.960938-1.441406-4.433594-2.175781-1.207031-.609375-2.398437-1.207031-3.609375-1.847656-1.453125-.800781-2.886719-1.601563-4.316406-2.398437-1.179687-.683594-2.355469-1.335938-3.515625-2.042969-1.445312-.886719-2.871094-1.839844-4.300781-2.773438-1.105469-.722656-2.226563-1.417969-3.3125-2.167969-.128907-.089843-.25-.195312-.386719-.28125 7.976562-8.667968 16.820312-16.488281 26.402344-23.335937 12.976562 20.707031 30.425781 38.242187 51.0625 51.328125l-2.296875-.207031c-1.621094-.226563-3.335938-.402344-5.007813-.625zm-135.320312-125.082031c-6.339844-29.019532-4.375-59.242188 5.675781-87.199219 13.019531 4.21875 26.464844 6.984375 40.09375 8.25.28125 21.730469 3.042969 43.359375 8.230469 64.460937zm19.347656-116.277344c.328125-.554688.636719-1.121094.980469-1.664063 2.691406-4.378906 5.601562-8.578125 8.683593-12.632812.453126-.609375.902344-1.21875 1.367188-1.816407 3.085938-3.953124 6.347656-7.738281 9.78125-11.351562.5625-.59375 1.121094-1.183594 1.683594-1.761719 3.460937-3.5625 7.085937-6.945312 10.878906-10.152343.617188-.519532 1.238281-1.03125 1.863281-1.542969 3.246094-2.671875 6.648438-5.152344 10.113281-7.558594-11.296874 21.613281-17.621093 45.476563-18.511718 69.847656-11.722656-1.136719-23.296875-3.480469-34.539063-7l.152344-.351562c2.289063-4.832031 4.824219-9.488281 7.546875-14.015625zm161.832031-75.464844c.671875.101562 1.351563.183594 2.015625.296875 3.703125.628906 7.375 1.414063 11.023438 2.300781.925781.234375 1.855468.480469 2.78125.730469 3.234375.847656 6.433594 1.796875 9.601562 2.847656.542969.183594 1.105469.34375 1.648438.527344 3.574218 1.238281 7.113281 2.632813 10.609375 4.128906.886719.375 1.757812.800781 2.636719 1.175781 3.152343 1.414063 6.273437 2.917969 9.347656 4.550782.421875.222656.863281.425781 1.285156.65625 3.378906 1.832031 6.6875 3.824218 9.953125 5.902344.847656.539062 1.679687 1.097656 2.519531 1.648437.839844.554687 1.824219 1.3125 2.746094 1.953125-7.941406 8.613281-16.75 16.390625-26.28125 23.199219-12.914062-20.625-30.253906-38.125-50.761719-51.230469l1.203125.113281c3.238282.300781 6.460938.695313 9.671875 1.199219zm131.429688 124.542969c6.34375 29.023437 4.378906 59.246093-5.671875 87.199219-13.019532-4.21875-26.46875-6.984376-40.09375-8.246094-.28125-21.730469-3.042969-43.359375-8.234375-64.464844zm-207.503907 132.929687c19.457032-11.816406 40.375-21.03125 62.222657-27.417968l22.515625 84c-28.816406 2.847656-60.179688-19.34375-84.738282-56.582032zm145.601563-55.097656c-24.296875-.511719-48.558594 2.15625-72.160156 7.9375l-12.464844-46.511719 77.054687-20.648437c4.710938 19.398437 7.25 39.261718 7.570313 59.222656zm-.394531 16.175781c-2.695313 44.542969-18.757813 79.441407-45.078125 91.359375l-22.511719-84c22.121094-5.390625 44.851562-7.863281 67.617188-7.359375zm-88.351563-70.207031-12.464843-46.511719c23.351562-6.792969 45.707031-16.617187 66.496093-29.226562 9.699219 17.453125 17.429688 35.929687 23.050781 55.089843zm-39.152343-146.113281c1.648437-.160157 3.296874-.320313 4.96875-.320313 27.375 0 56.648437 21.730469 79.847656 56.855469-19.480469 11.835937-40.425782 21.070313-62.304688 27.464844zm7.097656 88.144531c-22.113282 5.390625-44.835938 7.863281-67.59375 7.359375 2.699218-44.542969 18.761718-79.4375 45.082031-91.359375zm-68 23.449219c2.261718.070312 4.488281.222656 6.785156.222656 22.027344-.167969 43.957031-2.910156 65.351562-8.167969l12.488282 46.609375-77.058594 20.648438c-4.714844-19.429688-7.253906-39.324219-7.566406-59.3125zm88.800781 54.117187 12.460937 46.515625c-23.335937 6.785157-45.683593 16.605469-66.46875 29.207031-9.699218-17.449218-17.429687-35.917968-23.050781-55.074218zm157.824219-58.855468-53.898438 14.402343c-6.078125-20.878906-14.519531-40.992187-25.160156-59.953125 11.152344-7.902344 21.398438-17.007812 30.554688-27.152344 22.65625 19.203126 39.445312 44.398438 48.445312 72.703126zm-304.394532 98.113281 53.984376-14.464844c6.070312 20.871094 14.503906 40.980469 25.136718 59.9375-11.175781 7.910156-21.445312 17.03125-30.617187 27.199219-22.671875-19.1875-39.480469-44.371094-48.503907-72.671875zm0 0"
     id="path9"
     fill="url(#b)" />
  <path
     d="m304.082031 433.175781h-76.152343l-19.199219-24c17.960937-.050781 35.839843-2.433593 53.183593-7.089843 2.773438-.726563 4.945313-2.882813 5.691407-5.652344.75-2.769532-.042969-5.722656-2.074219-7.75-2.027344-2.023438-4.984375-2.808594-7.753906-2.054688-66.339844 18.007813-137.246094-.828125-185.90625-49.382812-48.660156-48.554688-67.648438-119.421875-49.789063-185.800782 17.863281-66.378906 69.847657-118.148437 136.304688-135.726562 4.25-1.160156 6.761719-5.53125 5.625-9.785156-1.140625-4.253906-5.5-6.789063-9.761719-5.671875-95.1875 25.480469-159.417969 114.273437-153.828125 212.65625 5.589844 98.378906 79.472656 179.328125 176.933594 193.855469l-21.121094 26.402343h-76.152344c-22.078125.023438-39.972656 17.917969-40 40 0 4.417969 3.582031 8 8 8h288c4.417969 0 8-3.582031 8-8-.023437-22.082031-17.917969-39.976562-40-40zm-112-19.203125 15.351563 19.203125h-30.703125zm-134.628906 51.203125c3.402344-9.582031 12.460937-15.988281 22.628906-16h224c10.167969.011719 19.230469 6.417969 22.632813 16zm0 0"
     fill="url(#c)"
     id="path11" />
  <path
     sodipodi:type="inkscape:offset"
     inkscape:radius="0"
     inkscape:original="M 82.857422 145.70898 C 79.168788 145.70898 76.519331 146.81092 74.908203 149.01562 C 73.339474 151.17793 72.554688 154.88717 72.554688 160.14453 L 72.554688 235.95312 C 72.554688 237.98823 72.809582 239.38723 73.318359 240.15039 C 73.869535 240.91356 74.780792 241.29492 76.052734 241.29492 C 77.367075 241.29492 78.300387 240.8915 78.851562 240.08594 C 79.445136 239.28037 79.742188 237.90344 79.742188 235.95312 L 79.742188 201.16602 C 79.742188 199.08851 79.975027 197.77383 80.441406 197.22266 C 80.907785 196.67148 81.75483 196.39648 82.984375 196.39648 C 84.129123 196.39648 85.062436 196.82001 85.783203 197.66797 C 86.546369 198.47353 87.479681 200.3382 88.582031 203.26367 L 97.167969 226.73047 C 97.295163 227.06965 97.485846 227.59954 97.740234 228.32031 C 100.87769 236.96952 104.99035 241.29492 110.07812 241.29492 C 113.76676 241.29492 116.41622 240.19298 118.02734 237.98828 C 119.68087 235.74118 120.50781 231.98783 120.50781 226.73047 L 120.50781 150.92383 C 120.50781 148.97352 120.21076 147.61668 119.61719 146.85352 C 119.06601 146.09035 118.1327 145.70898 116.81836 145.70898 C 115.50402 145.70898 114.57071 146.09035 114.01953 146.85352 C 113.46836 147.61668 113.19336 148.97352 113.19336 150.92383 L 113.19336 185.71094 C 113.19336 187.83084 112.93846 189.18768 112.42969 189.78125 C 111.96331 190.37482 111.13832 190.67188 109.95117 190.67188 C 108.04326 190.67187 106.21879 188.33957 104.48047 183.67578 L 104.48047 183.61328 L 95.894531 160.14453 L 95.449219 159.06445 C 92.226964 150.16085 88.029989 145.70898 82.857422 145.70898 z M 192.37305 172.92773 C 189.23559 172.92773 186.64839 173.9032 184.61328 175.85352 C 182.57817 177.80383 181.56055 180.30476 181.56055 183.35742 C 181.56055 184.62936 181.70907 185.94404 182.00586 187.30078 C 182.34504 188.65752 182.81072 189.90799 183.4043 191.05273 L 207.12695 236.14453 C 207.25415 236.39892 207.44483 236.75823 207.69922 237.22461 C 209.09836 239.93809 210.62382 241.29492 212.27734 241.29492 C 214.01567 241.29492 215.64945 239.85377 217.17578 236.9707 C 217.38777 236.58912 217.5363 236.31412 217.62109 236.14453 L 223.59766 225.20508 C 223.76725 224.90829 223.97999 224.52693 224.23438 224.06055 C 225.67591 221.38947 227.11706 220.05273 228.55859 220.05273 C 230.21212 220.05273 231.82385 221.58015 233.39258 224.63281 L 233.64648 225.14062 L 239.56055 236.14453 L 239.6875 236.39844 C 241.38342 239.66309 243.10152 241.29492 244.83984 241.29492 C 246.57817 241.29492 248.21 239.85377 249.73633 236.9707 C 249.94832 236.58912 250.09684 236.31412 250.18164 236.14453 L 274.79492 192.32617 C 275.77008 190.71504 276.4686 189.20968 276.89258 187.81055 C 277.31656 186.41141 277.5293 185.05458 277.5293 183.74023 C 277.5293 180.72997 276.57393 178.18493 274.66602 176.10742 C 272.7581 173.98752 270.38559 172.92773 267.54492 172.92773 C 264.44986 172.92773 261.94698 173.8831 260.03906 175.79102 C 258.17355 177.65653 257.24219 180.13541 257.24219 183.23047 C 257.24219 185.47757 258.00492 188.27555 259.53125 191.625 C 261.05758 194.97445 261.82031 197.24254 261.82031 198.42969 C 261.82031 200.71918 261.03553 202.62797 259.4668 204.1543 C 257.89807 205.63823 255.94713 206.38086 253.61523 206.38086 C 250.18099 206.38086 246.98154 203.47651 244.01367 197.66797 C 243.54729 196.69281 243.18603 195.95018 242.93164 195.44141 L 236.76367 183.29492 L 236.63672 183.04102 C 233.20247 176.29972 229.55549 172.92773 225.69727 172.92773 C 222.47501 172.92773 219.82555 173.9032 217.74805 175.85352 C 215.67054 177.80383 214.63086 180.30476 214.63086 183.35742 C 214.63086 184.62936 214.80144 185.92394 215.14062 187.23828 C 215.47981 188.55262 215.96754 189.82319 216.60352 191.05273 L 223.66211 204.59961 L 224.04297 205.36328 C 224.63654 206.46563 224.93359 207.33473 224.93359 207.9707 C 224.93359 209.03066 224.57428 209.91986 223.85352 210.64062 C 223.13275 211.36139 222.24159 211.72266 221.18164 211.72266 C 220.33368 211.72266 219.54889 211.4256 218.82812 210.83203 C 218.14976 210.19606 217.40908 209.15638 216.60352 207.71484 L 203.56445 183.35742 L 203.24805 182.72266 C 199.7714 176.19335 196.14648 172.92773 192.37305 172.92773 z M 153.57812 173.05469 C 145.3529 173.05469 139.16283 175.00563 135.00781 178.90625 C 130.8952 182.76448 128.83789 188.59524 128.83789 196.39648 L 128.83789 218.01758 C 128.83789 225.77643 130.8952 231.60719 135.00781 235.50781 C 139.12043 239.36604 145.26834 241.29492 153.45117 241.29492 C 160.31966 241.29492 166.10631 239.7273 170.8125 236.58984 C 175.56109 233.40999 177.93555 229.63653 177.93555 225.26953 C 177.93555 222.21687 177.02429 219.67183 175.20117 217.63672 C 173.42045 215.60161 171.21462 214.58398 168.58594 214.58398 C 165.83006 214.58398 163.62618 215.19819 161.97266 216.42773 C 160.31913 217.65728 158.83583 219.92732 157.52148 223.23438 C 156.03755 226.88061 154.49003 229.35949 152.87891 230.67383 C 151.26778 231.94577 149.16831 232.58203 146.58203 232.58203 C 143.52937 232.58203 140.98628 231.45804 138.95117 229.21094 C 136.91606 226.96384 135.89844 224.14575 135.89844 220.75391 C 135.89844 217.78604 136.97832 215.38952 139.14062 213.56641 C 141.30293 211.74329 144.16512 210.83203 147.72656 210.83203 L 161.14648 210.83203 C 166.23426 210.83203 170.40918 209.17814 173.67383 205.87109 C 176.93848 202.56404 178.57227 198.2607 178.57227 192.96094 C 178.57227 186.72842 176.36643 181.85303 171.95703 178.33398 C 167.59003 174.81494 161.46417 173.05469 153.57812 173.05469 z M 306.21094 173.05469 C 298.83367 173.05469 292.83428 174.89926 288.21289 178.58789 C 283.6339 182.23413 281.34375 187.0252 281.34375 192.96094 C 281.34375 198.64228 283.03979 203.02994 286.43164 206.125 C 289.86589 209.17766 294.72118 210.70508 300.99609 210.70508 L 309.32812 210.70508 C 314.03431 210.70508 317.51071 211.57418 319.75781 213.3125 C 322.00491 215.05082 323.12695 217.74244 323.12695 221.38867 C 323.12695 224.31414 322.15344 226.81702 320.20312 228.89453 C 318.25281 230.92964 315.94061 231.94727 313.26953 231.94727 C 307.92737 231.94727 303.90098 227.74834 301.1875 219.35352 L 300.86914 218.33594 C 300.48756 217.14879 299.55425 216.13116 298.07031 215.2832 C 296.62878 214.39284 294.95479 213.94922 293.04688 213.94922 C 289.48544 213.94922 286.6453 214.92273 284.52539 216.87305 C 282.40549 218.78096 281.34375 221.36816 281.34375 224.63281 C 281.34375 229.50859 283.59174 233.51489 288.08594 236.65234 C 292.62253 239.7474 298.40918 241.29492 305.44727 241.29492 C 313.20612 241.29492 319.41824 239.49251 324.08203 235.88867 C 328.74582 232.24244 331.07812 227.4092 331.07812 221.38867 C 331.07812 215.83452 329.38208 211.46892 325.99023 208.28906 C 322.64079 205.10921 317.99823 203.51758 312.0625 203.51758 L 302.45898 203.51758 C 297.668 203.51758 294.1916 202.69259 292.0293 201.03906 C 289.86699 199.34314 288.78516 196.64957 288.78516 192.96094 C 288.78516 189.95067 289.76063 187.44974 291.71094 185.45703 C 293.66125 183.46432 296.12002 182.4668 299.08789 182.4668 C 301.71657 182.4668 303.92241 183.25158 305.70312 184.82031 C 307.52624 186.38904 308.81887 188.67919 309.58203 191.68945 C 310.3452 194.48773 311.42508 196.52298 312.82422 197.79492 C 314.26575 199.02447 316.23875 199.63867 318.74023 199.63867 C 322.30167 199.63867 325.16387 198.70536 327.32617 196.83984 C 329.48847 194.93193 330.56836 192.431 330.56836 189.33594 C 330.56836 184.58735 328.30027 180.68743 323.76367 177.63477 C 319.26947 174.5821 313.41861 173.05469 306.21094 173.05469 z M 160.89062 183.10352 C 163.81609 183.10352 166.19055 184.01477 168.01367 185.83789 C 169.87919 187.61861 170.8125 189.95091 170.8125 192.83398 C 170.8125 196.05624 169.79487 198.64344 167.75977 200.59375 C 165.76706 202.54406 163.13965 203.51758 159.875 203.51758 L 150.58789 203.51758 L 150.58789 193.66016 C 150.58789 190.35311 151.5011 187.76786 153.32422 185.90234 C 155.14734 184.03683 157.66837 183.10352 160.89062 183.10352 z "
     style="font-style:normal;font-variant:normal;font-weight:normal;font-stretch:normal;font-size:130.24693298px;line-height:1.25;font-family:'Segoe UI';-inkscape-font-specification:'Segoe UI';letter-spacing:0px;word-spacing:0px;opacity:1;fill:url(#linearGradient1034);fill-opacity:1;stroke:#ffffff;stroke-width:3.75135947;stroke-opacity:1;stroke-miterlimit:4;stroke-dasharray:none"
     id="text828"
     d="m 82.857422,145.70898 c -3.688634,0 -6.338091,1.10194 -7.949219,3.30664 -1.568729,2.16231 -2.353515,5.87155 -2.353515,11.12891 v 75.80859 c 0,2.03511 0.254894,3.43411 0.763671,4.19727 0.551176,0.76317 1.462433,1.14453 2.734375,1.14453 1.314341,0 2.247653,-0.40342 2.798828,-1.20898 0.593574,-0.80557 0.890626,-2.1825 0.890626,-4.13282 v -34.7871 c 0,-2.07751 0.232839,-3.39219 0.699218,-3.94336 0.466379,-0.55118 1.313424,-0.82618 2.542969,-0.82618 1.144748,0 2.078061,0.42353 2.798828,1.27149 0.763166,0.80556 1.696478,2.67023 2.798828,5.5957 l 8.585938,23.4668 c 0.127194,0.33918 0.317877,0.86907 0.572265,1.58984 3.137456,8.64921 7.250116,12.97461 12.337886,12.97461 3.68864,0 6.3381,-1.10194 7.94922,-3.30664 1.65353,-2.2471 2.48047,-6.00045 2.48047,-11.25781 v -75.80664 c 0,-1.95031 -0.29705,-3.30715 -0.89062,-4.07031 -0.55118,-0.76317 -1.48449,-1.14454 -2.79883,-1.14454 -1.31434,0 -2.24765,0.38137 -2.79883,1.14454 -0.55117,0.76316 -0.82617,2.12 -0.82617,4.07031 v 34.78711 c 0,2.1199 -0.2549,3.47674 -0.76367,4.07031 -0.46638,0.59357 -1.29137,0.89063 -2.47852,0.89063 -1.90791,-10e-6 -3.73238,-2.33231 -5.4707,-6.9961 v -0.0625 l -8.585939,-23.46875 -0.445312,-1.08008 c -3.222255,-8.9036 -7.41923,-13.35547 -12.591797,-13.35547 z m 109.515628,27.21875 c -3.13746,0 -5.72466,0.97547 -7.75977,2.92579 -2.03511,1.95031 -3.05273,4.45124 -3.05273,7.5039 0,1.27194 0.14852,2.58662 0.44531,3.94336 0.33918,1.35674 0.80486,2.60721 1.39844,3.75195 l 23.72265,45.0918 c 0.1272,0.25439 0.31788,0.6137 0.57227,1.08008 1.39914,2.71348 2.9246,4.07031 4.57812,4.07031 1.73833,0 3.37211,-1.44115 4.89844,-4.32422 0.21199,-0.38158 0.36052,-0.65658 0.44531,-0.82617 l 5.97657,-10.93945 c 0.16959,-0.29679 0.38233,-0.67815 0.63672,-1.14453 1.44153,-2.67108 2.88268,-4.00782 4.32421,-4.00782 1.65353,0 3.26526,1.52742 4.83399,4.58008 l 0.2539,0.50781 5.91407,11.00391 0.12695,0.25391 c 1.69592,3.26465 3.41402,4.89648 5.15234,4.89648 1.73833,0 3.37016,-1.44115 4.89649,-4.32422 0.21199,-0.38158 0.36051,-0.65658 0.44531,-0.82617 l 24.61328,-43.81836 c 0.97516,-1.61113 1.67368,-3.11649 2.09766,-4.51562 0.42398,-1.39914 0.63672,-2.75597 0.63672,-4.07032 0,-3.01026 -0.95537,-5.5553 -2.86328,-7.63281 -1.90792,-2.1199 -4.28043,-3.17969 -7.1211,-3.17969 -3.09506,0 -5.59794,0.95537 -7.50586,2.86329 -1.86551,1.86551 -2.79687,4.34439 -2.79687,7.43945 0,2.2471 0.76273,5.04508 2.28906,8.39453 1.52633,3.34945 2.28906,5.61754 2.28906,6.80469 0,2.28949 -0.78478,4.19828 -2.35351,5.72461 -1.56873,1.48393 -3.51967,2.22656 -5.85157,2.22656 -3.43424,0 -6.63369,-2.90435 -9.60156,-8.71289 -0.46638,-0.97516 -0.82764,-1.71779 -1.08203,-2.22656 l -6.16797,-12.14649 -0.12695,-0.2539 c -3.43425,-6.7413 -7.08123,-10.11329 -10.93945,-10.11329 -3.22226,0 -5.87172,0.97547 -7.94922,2.92579 -2.07751,1.95031 -3.11719,4.45124 -3.11719,7.5039 0,1.27194 0.17058,2.56652 0.50976,3.88086 0.33919,1.31434 0.82692,2.58491 1.4629,3.81445 l 7.05859,13.54688 0.38086,0.76367 c 0.59357,1.10235 0.89062,1.97145 0.89062,2.60742 0,1.05996 -0.35931,1.94916 -1.08007,2.66992 -0.72077,0.72077 -1.61193,1.08204 -2.67188,1.08204 -0.84796,0 -1.63275,-0.29706 -2.35352,-0.89063 -0.67836,-0.63597 -1.41904,-1.67565 -2.2246,-3.11719 l -13.03907,-24.35742 -0.3164,-0.63476 c -3.47665,-6.52931 -7.10157,-9.79493 -10.875,-9.79493 z m -38.79493,0.12696 c -8.22522,0 -14.41529,1.95094 -18.57031,5.85156 -4.11261,3.85823 -6.16992,9.68899 -6.16992,17.49023 v 21.6211 c 0,7.75885 2.05731,13.58961 6.16992,17.49023 4.11262,3.85823 10.26053,5.78711 18.44336,5.78711 6.86849,0 12.65514,-1.56762 17.36133,-4.70508 4.74859,-3.17985 7.12305,-6.95331 7.12305,-11.32031 0,-3.05266 -0.91126,-5.5977 -2.73438,-7.63281 -1.78072,-2.03511 -3.98655,-3.05274 -6.61523,-3.05274 -2.75588,0 -4.95976,0.61421 -6.61328,1.84375 -1.65353,1.22955 -3.13683,3.49959 -4.45118,6.80665 -1.48393,3.64623 -3.03145,6.12511 -4.64257,7.43945 -1.61113,1.27194 -3.7106,1.9082 -6.29688,1.9082 -3.05266,0 -5.59575,-1.12399 -7.63086,-3.37109 -2.03511,-2.2471 -3.05273,-5.06519 -3.05273,-8.45703 0,-2.96787 1.07988,-5.36439 3.24218,-7.1875 2.16231,-1.82312 5.0245,-2.73438 8.58594,-2.73438 h 13.41992 c 5.08778,0 9.2627,-1.65389 12.52735,-4.96094 3.26465,-3.30705 4.89844,-7.61039 4.89844,-12.91015 0,-6.23252 -2.20584,-11.10791 -6.61524,-14.62696 -4.367,-3.51904 -10.49286,-5.27929 -18.37891,-5.27929 z m 152.63282,0 c -7.37727,0 -13.37666,1.84457 -17.99805,5.5332 -4.57899,3.64624 -6.86914,8.43731 -6.86914,14.37305 0,5.68134 1.69604,10.069 5.08789,13.16406 3.43425,3.05266 8.28954,4.58008 14.56445,4.58008 h 8.33203 c 4.70619,0 8.18259,0.8691 10.42969,2.60742 2.2471,1.73832 3.36914,4.42994 3.36914,8.07617 0,2.92547 -0.97351,5.42835 -2.92383,7.50586 -1.95031,2.03511 -4.26251,3.05274 -6.93359,3.05274 -5.34216,0 -9.36855,-4.19893 -12.08203,-12.59375 l -0.31836,-1.01758 c -0.38158,-1.18715 -1.31489,-2.20478 -2.79883,-3.05274 -1.44153,-0.89036 -3.11552,-1.33398 -5.02343,-1.33398 -3.56144,0 -6.40158,0.97351 -8.52149,2.92383 -2.1199,1.90791 -3.18164,4.49511 -3.18164,7.75976 0,4.87578 2.24799,8.88208 6.74219,12.01953 4.53659,3.09506 10.32324,4.64258 17.36133,4.64258 7.75885,0 13.97097,-1.80241 18.63476,-5.40625 4.66379,-3.64623 6.99609,-8.47947 6.99609,-14.5 0,-5.55415 -1.69604,-9.91975 -5.08789,-13.09961 -3.34944,-3.17985 -7.992,-4.77148 -13.92773,-4.77148 h -9.60352 c -4.79098,0 -8.26738,-0.82499 -10.42968,-2.47852 -2.16231,-1.69592 -3.24414,-4.38949 -3.24414,-8.07812 0,-3.01027 0.97547,-5.5112 2.92578,-7.50391 1.95031,-1.99271 4.40908,-2.99023 7.37695,-2.99023 2.62868,0 4.83452,0.78478 6.61523,2.35351 1.82312,1.56873 3.11575,3.85888 3.87891,6.86914 0.76317,2.79828 1.84305,4.83353 3.24219,6.10547 1.44153,1.22955 3.41453,1.84375 5.91601,1.84375 3.56144,0 6.42364,-0.93331 8.58594,-2.79883 2.1623,-1.90791 3.24219,-4.40884 3.24219,-7.5039 0,-4.74859 -2.26809,-8.64851 -6.80469,-11.70117 -4.4942,-3.05267 -10.34506,-4.58008 -17.55273,-4.58008 z m -145.32032,10.04883 c 2.92547,0 5.29993,0.91125 7.12305,2.73437 1.86552,1.78072 2.79883,4.11302 2.79883,6.99609 0,3.22226 -1.01763,5.80946 -3.05273,7.75977 -1.99271,1.95031 -4.62012,2.92383 -7.88477,2.92383 h -9.28711 v -9.85742 c 0,-3.30705 0.91321,-5.8923 2.73633,-7.75782 1.82312,-1.86551 4.34415,-2.79882 7.5664,-2.79882 z" />
</svg>
